# xmcd
#
# Track frame offsets:
#	150
#	18985
#	40925
#	58253
#	74750
#	93585
#	115525
#	132853
#
# Disc length: 1991
#
# Revision: 1
# Processed by: cddbd v1.5.2PL0 Copyright (c) Steve Scherf et al.
# Submitted via: kJams Pro (development) 1.0patch52.41
#
DISCID=6e07c508
DTITLE=Messina, Jo Dee - KB28362
DYEAR=2012
DGENRE=Country
TTITLE0=Messina, Jo Dee - Bring On The Rain
TTITLE1=Messina, Jo Dee - Burn
TTITLE2=Messina, Jo Dee - Downtime
TTITLE3=Messina, Jo Dee - That's The Way
TTITLE4=Messina, Jo Dee - Bring On The Rain (vocal)
TTITLE5=Messina, Jo Dee - Burn (vocal)
TTITLE6=Messina, Jo Dee - Downtime (vocal)
TTITLE7=Messina, Jo Dee - That's The Way (vocal)
EXTD=
EXTT0=
EXTT1=
EXTT2=
EXTT3=
EXTT4=
EXTT5=
EXTT6=
EXTT7=
PLAYORDER=
